<svg xmlns="http://www.w3.org/2000/svg" xmlns:xlink="http://www.w3.org/1999/xlink" width="19" height="13" viewBox="0 0 19 13">
  <metadata><?xpacket begin="﻿" id="W5M0MpCehiHzreSzNTczkc9d"?>
<x:xmpmeta xmlns:x="adobe:ns:meta/" x:xmptk="Adobe XMP Core 5.6-c140 79.160451, 2017/05/06-01:08:21        ">
   <rdf:RDF xmlns:rdf="http://www.w3.org/1999/02/22-rdf-syntax-ns#">
      <rdf:Description rdf:about=""/>
   </rdf:RDF>
</x:xmpmeta>
                                                                                                    
                                                                                                    
                                                                                                    
                                                                                                    
                                                                                                    
                                                                                                    
                                                                                                    
                                                                                                    
                                                                                                    
                                                                                                    
                                                                                                    
                                                                                                    
                                                                                                    
                                                                                                    
                                                                                                    
                                                                                                    
                                                                                                    
                                                                                                    
                                                                                                    
                                                                                                    
                           
<?xpacket end="w"?></metadata>
<defs>
    <style>
      .cls-1 {
        fill: #fff;
        fill-rule: evenodd;
        filter: url(#filter);
      }
    </style>
    <filter id="filter" x="1036" y="4611" width="19" height="13" filterUnits="userSpaceOnUse">
      <feFlood result="flood" flood-color="#323232"/>
      <feComposite result="composite" operator="in" in2="SourceGraphic"/>
      <feBlend result="blend" in2="SourceGraphic"/>
    </filter>
  </defs>
  <path id="MAIL" class="cls-1" d="M1048.95,4616.83l5.78-5.57a0.853,0.853,0,0,1,.27.63v11.22a0.838,0.838,0,0,1-.24.6Zm-12.65-5.6a0.867,0.867,0,0,1,.59-0.23h17.22a0.867,0.867,0,0,1,.59.23l-9.2,7.16Zm-0.06,12.48a0.838,0.838,0,0,1-.24-0.6v-11.22a0.853,0.853,0,0,1,.27-0.63l5.78,5.57Zm9.26-3.55,2.42-2.33,6.8,5.93a0.879,0.879,0,0,1-.61.24h-17.22a0.879,0.879,0,0,1-.61-0.24l6.8-5.93Z" transform="translate(-1036 -4611)"/>
</svg>
