<svg id="Слой_1" data-name="Слой 1" xmlns="http://www.w3.org/2000/svg" viewBox="0 0 298.32124 346.57995"><defs><style>.cls-1,.cls-2,.cls-3,.cls-4{stroke:#000;stroke-miterlimit:10;}.cls-1{stroke-width:4px;}.cls-2,.cls-3{fill:none;}.cls-2{stroke-width:10px;}.cls-3,.cls-4{stroke-width:3px;}</style></defs><title>OctoLogo</title><path class="cls-1" d="M388.06726,308c0,15.9906-12.785,29-28.5,29s-28.5-13.0094-28.5-29c0-8.17937,4.09574-16.61572,9.70042-22.21537a2.30883,2.30883,0,0,0-.82369-3.818l-.05352-.01954a2.3305,2.3305,0,0,0-2.36161.45842A34.12178,34.12178,0,0,0,326.06726,308c0,18.77765,14.99847,34,33.5,34s33.5-15.22235,33.5-34a34.28925,34.28925,0,0,0-1.49872-10.03949,2.31677,2.31677,0,0,0-2.89268-1.5038q-.10383.03045-.2086.05928a2.35409,2.35409,0,0,0-1.65814,2.96806A29.31375,29.31375,0,0,1,388.06726,308Z" transform="translate(-153.06726 -163.5)"/><path class="cls-1" d="M444.61707,295.03884c-1.04466-.2528-2.09226-.51328-3.14161-.79391a.96559.96559,0,0,1-.6007-1.38836,35.28215,35.28215,0,0,0,2.91978-6.73891,20.62113,20.62113,0,1,0-40.101-9.60494,21.63959,21.63959,0,0,0,.17907,10.5134c2.65691,9.21446,4.4548,19.00629,2.03892,29.09267a48.58648,48.58648,0,0,1-5.09068,12.8573.965.965,0,0,1-1.74469-.81375c7.1608-18.84386,2.26387-33.133.92778-37.1133l-.00453.00311c-.28244-.6883-.52684-1.38454-.74853-2.0856-.01452-.0368-.05389-.1878-.06438-.226a25.02329,25.02329,0,0,1-.35538-13.39237A25.62043,25.62043,0,1,1,448.657,287.28227a26.10845,26.10845,0,0,1-2.97915,7.31869A.97018.97018,0,0,1,444.61707,295.03884Z" transform="translate(-153.06726 -163.5)"/><path class="cls-1" d="M216.3885,311c0,15.9906,12.785,29,28.5,29s28.5-13.0094,28.5-29c0-8.17937-4.09574-16.61572-9.70042-22.21537a2.30883,2.30883,0,0,1,.82369-3.818l.05352-.01954a2.33052,2.33052,0,0,1,2.36162.45842A34.12178,34.12178,0,0,1,278.3885,311c0,18.77765-14.99847,34-33.5,34s-33.5-15.22235-33.5-34a34.28892,34.28892,0,0,1,1.49873-10.03949,2.31676,2.31676,0,0,1,2.89268-1.5038q.10383.03045.20859.05928a2.35407,2.35407,0,0,1,1.65814,2.96806A29.31375,29.31375,0,0,0,216.3885,311Z" transform="translate(-153.06726 -163.5)"/><path class="cls-1" d="M173.35749,351.01178c3.8514-9.006,13.96991-12.22742,23.11033-8.31853,2.03592.87066,5.92021,3.26667,10.21684,9.02493a1.45135,1.45135,0,0,1-.37108,2.101c-.2067.13023-.43244.27021-.67285.416a1.4681,1.4681,0,0,1-1.87793-.30182c-3.85593-4.56235-6.92442-6.731-8.84762-7.55341a12.88426,12.88426,0,0,0-16.96043,6.59784c-2.57773,6.02769.26053,14.22481,6.31816,16.65678a1.697,1.697,0,0,1,1.05368,1.92828q-.2051.95916-.45635,1.89859a1.41473,1.41473,0,0,1-1.92121.94113l-.015-.0064A17.8691,17.8691,0,0,1,173.35749,351.01178Z" transform="translate(-153.06726 -163.5)"/><path class="cls-1" d="M159.8387,298.03884c1.04465-.2528,2.09225-.51328,3.1416-.79391a.9656.9656,0,0,0,.60071-1.38836,35.28154,35.28154,0,0,1-2.91979-6.73891,20.62113,20.62113,0,1,1,40.10105-9.60494,21.63972,21.63972,0,0,1-.17906,10.5134c-2.65692,9.21446-4.45481,19.00629-2.03893,29.09267a48.58682,48.58682,0,0,0,5.09068,12.8573.965.965,0,0,0,1.74469-.81375c-7.16079-18.84386-2.26386-33.133-.92777-37.1133l.00452.00311c.28245-.6883.52685-1.38454.74854-2.0856.01451-.0368.05388-.1878.06438-.226a25.02329,25.02329,0,0,0,.35537-13.39237,25.62043,25.62043,0,1,0-49.82595,11.93414,26.10847,26.10847,0,0,0,2.97916,7.31869A.97018.97018,0,0,0,159.8387,298.03884Z" transform="translate(-153.06726 -163.5)"/><path class="cls-2" d="M239.5,228.5c0-38.65993,34-60,61-60,29,0,62,21.34007,62,60s-27.53449,70-61.5,70S239.5,267.15993,239.5,228.5Z" transform="translate(-153.06726 -163.5)"/><path class="cls-1" d="M256.192,394.945c-.582-.90357-1.1723-1.8074-1.78217-2.70626a.9656.9656,0,0,0-1.50866-.11112,35.281,35.281,0,0,1-5.40522,4.97208,20.62112,20.62112,0,1,1-22.249-34.71788,21.63964,21.63964,0,0,1,9.9884-3.28565c9.57584-.51855,19.4147-2.03816,28.14708-7.63432a48.58647,48.58647,0,0,0,10.47047-9.033.965.965,0,0,0-1.34187-1.3804c-15.44434,12.95534-30.54911,13.02584-34.74743,13.0719l.00145-.0053c-.74289-.04058-1.48077-.04262-2.21575-.02163-.03953-.00161-.19508.01082-.23465.01348a25.02332,25.02332,0,0,0-12.76544,4.06517,25.62043,25.62043,0,1,0,27.6445,43.13734,26.10838,26.10838,0,0,0,5.9333-5.21867A.97018.97018,0,0,0,256.192,394.945Z" transform="translate(-153.06726 -163.5)"/><path class="cls-1" d="M350.39349,393.945c.58205-.90357,1.17231-1.8074,1.78218-2.70626a.96559.96559,0,0,1,1.50865-.11112,35.28106,35.28106,0,0,0,5.40523,4.97208,20.62112,20.62112,0,1,0,22.249-34.71788,21.63964,21.63964,0,0,0-9.9884-3.28565c-9.57584-.51855-19.4147-2.03816-28.14708-7.63432a48.58653,48.58653,0,0,1-10.47048-9.033.965.965,0,0,1,1.34188-1.3804c15.44433,12.95534,30.54911,13.02584,34.74743,13.0719l-.00146-.0053c.7429-.04058,1.48078-.04262,2.21576-.02163.03952-.00161.19507.01082.23465.01348a25.02329,25.02329,0,0,1,12.76543,4.06517,25.62042,25.62042,0,1,1-27.64449,43.13734,26.10817,26.10817,0,0,1-5.9333-5.21867A.97018.97018,0,0,1,350.39349,393.945Z" transform="translate(-153.06726 -163.5)"/><path class="cls-3" d="M276.5,324c1.96067-8.33285,13.52131-21.5,26.5-21.5" transform="translate(-153.06726 -163.5)"/><path d="M327.0719,322.80823a15.48625,15.48625,0,0,1,.7525,1.46856l2.63556-.62054C328.33789,314.63672,316.10352,301,302.5,301v3C313.53589,304,324.21826,314.71747,327.0719,322.80823Z" transform="translate(-153.06726 -163.5)"/><polygon class="cls-4" points="132.433 145 125.433 154 123.433 131 143.433 138 132.433 145"/><polygon class="cls-4" points="167.433 145 174.433 154 176.433 131 156.433 138 167.433 145"/><path class="cls-1" d="M429.56615,349.01178c-3.85139-9.006-13.96991-12.22742-23.11033-8.31853-2.03592.87066-5.9202,3.26667-10.21684,9.02493a1.45135,1.45135,0,0,0,.37108,2.101c.2067.13023.43244.27021.67285.416a1.4681,1.4681,0,0,0,1.87793-.30182c3.85593-4.56235,6.92442-6.731,8.84762-7.55341a12.88426,12.88426,0,0,1,16.96043,6.59784c2.57774,6.02769-.26053,14.22481-6.31816,16.65678a1.697,1.697,0,0,0-1.05368,1.92828q.20509.95916.45635,1.89859a1.41473,1.41473,0,0,0,1.92121.94113l.015-.0064A17.86909,17.86909,0,0,0,429.56615,349.01178Z" transform="translate(-153.06726 -163.5)"/><text x="-153.06726" y="-163.5"></text></svg>