<svg width="497" height="463" viewBox="0 0 497 463" fill="none" xmlns="http://www.w3.org/2000/svg">
<g clip-path="url(#clip0)">
<path d="M375.388 266.035C375.388 290.475 355.924 310.358 332 310.358C308.076 310.358 288.612 290.475 288.612 266.035C288.612 253.534 294.847 240.64 303.38 232.082C303.804 231.665 304.116 231.147 304.287 230.576C304.457 230.005 304.481 229.4 304.356 228.817C304.231 228.234 303.961 227.693 303.571 227.244C303.181 226.794 302.684 226.451 302.126 226.247L302.044 226.217C301.438 225.994 300.783 225.942 300.15 226.065C299.516 226.189 298.928 226.483 298.449 226.917C292.946 231.824 288.545 237.85 285.537 244.593C282.529 251.337 280.982 258.646 281 266.035C281 294.735 303.834 318 332 318C360.167 318 383 294.735 383 266.035C383.002 260.835 382.233 255.664 380.718 250.691C380.434 249.803 379.812 249.063 378.987 248.633C378.163 248.202 377.202 248.116 376.315 248.393C376.209 248.424 376.103 248.454 375.997 248.483C375.529 248.606 375.09 248.822 374.708 249.118C374.325 249.415 374.006 249.787 373.771 250.211C373.535 250.635 373.387 251.102 373.336 251.585C373.284 252.067 373.331 252.556 373.473 253.02C374.746 257.24 375.391 261.626 375.388 266.035V266.035Z" fill="#333333" stroke="#333333" stroke-width="4" stroke-miterlimit="10"/>
<path d="M115.537 265.92C115.537 290.414 134.81 310.341 158.5 310.341C182.19 310.341 201.463 290.414 201.463 265.92C201.463 253.391 195.288 240.468 186.84 231.891C186.42 231.473 186.111 230.953 185.942 230.381C185.773 229.809 185.749 229.203 185.873 228.619C185.997 228.035 186.265 227.492 186.651 227.042C187.037 226.591 187.529 226.248 188.081 226.043L188.162 226.013C188.762 225.79 187.166 228.604 189.122 227.423C189.75 227.546 191.334 228.615 191.809 229.05C197.257 233.968 201.529 237.671 204.508 244.43C207.486 251.189 209.018 258.514 209 265.92C209 294.683 186.39 318 158.5 318C130.61 318 108 294.683 108 265.92C107.998 260.708 108.76 255.525 110.259 250.542C110.541 249.651 111.157 248.91 111.973 248.479C112.79 248.047 113.741 247.961 114.62 248.238C114.724 248.269 114.829 248.299 114.934 248.329C115.398 248.451 115.832 248.668 116.211 248.965C116.59 249.263 116.905 249.635 117.139 250.06C117.373 250.485 117.519 250.953 117.57 251.437C117.62 251.921 117.574 252.41 117.434 252.875C116.173 257.105 115.534 261.5 115.537 265.92Z" fill="#333333" stroke="#333333" stroke-width="4" stroke-miterlimit="10"/>
<path d="M460.75 244.525C459.184 244.14 457.614 243.743 456.041 243.315C455.83 243.258 455.635 243.153 455.47 243.008C455.305 242.863 455.174 242.682 455.088 242.479C455.001 242.275 454.961 242.054 454.97 241.833C454.979 241.611 455.037 241.395 455.14 241.2C456.946 237.94 458.413 234.498 459.517 230.93C460.547 226.888 460.775 222.677 460.186 218.545C459.598 214.412 458.205 210.44 456.089 206.861C453.974 203.282 451.178 200.167 447.865 197.699C444.552 195.231 440.788 193.459 436.794 192.486C432.799 191.513 428.654 191.36 424.601 192.034C420.547 192.709 416.667 194.197 413.186 196.414C409.705 198.63 406.693 201.53 404.327 204.943C401.961 208.356 400.287 212.214 399.404 216.292C398.197 221.574 398.289 227.077 399.673 232.314C403.656 246.357 406.351 261.279 402.729 276.65C401.117 283.518 398.548 290.116 395.098 296.244C394.92 296.569 394.628 296.814 394.28 296.928C393.932 297.043 393.554 297.019 393.222 296.862C392.891 296.705 392.63 296.426 392.493 296.081C392.356 295.736 392.352 295.351 392.483 295.004C403.217 266.287 395.876 244.511 393.873 238.445L393.867 238.45C393.443 237.401 393.077 236.34 392.745 235.271C392.723 235.215 392.664 234.985 392.648 234.927C390.649 228.299 390.465 221.243 392.115 214.518C393.227 209.466 395.316 204.69 398.261 200.467C401.205 196.243 404.946 192.658 409.266 189.918C413.586 187.178 418.399 185.339 423.424 184.507C428.45 183.676 433.588 183.868 438.54 185.074C443.492 186.28 448.158 188.474 452.268 191.53C456.378 194.586 459.849 198.443 462.479 202.875C465.109 207.307 466.846 212.227 467.589 217.348C468.332 222.469 468.066 227.689 466.806 232.705C465.883 236.631 464.377 240.392 462.34 243.858C462.179 244.127 461.938 244.336 461.652 244.456C461.367 244.576 461.05 244.6 460.75 244.525V244.525Z" fill="#333333" stroke="#333333" stroke-width="4" stroke-miterlimit="10"/>
<path d="M50.1002 331.281C55.9304 318.361 71.2478 313.739 85.0846 319.347C88.1666 320.596 94.0466 324.034 100.551 332.295C100.735 332.523 100.867 332.786 100.938 333.065C101.01 333.345 101.019 333.635 100.967 333.918C100.914 334.201 100.8 334.471 100.631 334.71C100.463 334.95 100.244 335.153 99.9891 335.309C99.6762 335.496 99.3345 335.696 98.9705 335.906C98.5195 336.165 97.9859 336.264 97.4651 336.184C96.9443 336.105 96.4703 335.853 96.1277 335.473C90.2906 328.927 85.6455 325.816 82.7342 324.636C78.0043 322.671 72.645 322.564 67.8319 324.338C63.0188 326.113 59.1448 329.624 57.0595 334.102C53.1573 342.749 57.4539 354.509 66.6239 357.998C67.1928 358.205 67.6655 358.597 67.9577 359.104C68.2499 359.61 68.3425 360.199 68.219 360.764C68.012 361.682 67.7817 362.59 67.5282 363.488C67.4498 363.77 67.3085 364.032 67.1137 364.257C66.919 364.482 66.6754 364.665 66.3995 364.793C66.1237 364.921 65.822 364.991 65.5149 364.999C65.2078 365.007 64.9026 364.952 64.6199 364.838L64.5972 364.829C57.9808 362.202 52.7365 357.192 50.0178 350.9C47.2991 344.609 47.3288 337.552 50.1002 331.281V331.281Z" fill="#333333" stroke="#333333" stroke-width="4" stroke-miterlimit="10"/>
<path d="M32.155 243.452C33.7007 243.074 35.2507 242.684 36.8033 242.264C37.0111 242.207 37.2037 242.104 37.3665 241.962C37.5294 241.819 37.6584 241.641 37.7438 241.442C37.8293 241.242 37.869 241.025 37.8601 240.807C37.8511 240.59 37.7937 240.377 37.6921 240.185C35.9091 236.984 34.4613 233.603 33.372 230.097C32.3554 226.126 32.1311 221.99 32.7121 217.931C33.2932 213.872 34.6679 209.97 36.756 206.454C38.8442 202.939 41.6038 199.879 44.8738 197.455C48.1438 195.03 51.8585 193.289 55.8009 192.334C59.7433 191.379 63.8344 191.228 67.8351 191.89C71.8358 192.553 75.6659 194.015 79.1017 196.192C82.5375 198.369 85.51 201.217 87.8456 204.57C90.1813 207.922 91.8331 211.712 92.7048 215.718C93.8967 220.907 93.8057 226.312 92.4399 231.457C88.5087 245.251 85.8486 259.91 89.4231 275.01C91.0139 281.756 93.5503 288.238 96.9552 294.257C97.1307 294.577 97.4193 294.817 97.7628 294.93C98.1063 295.042 98.4793 295.019 98.8066 294.865C99.1339 294.71 99.3911 294.436 99.5266 294.097C99.662 293.759 99.6656 293.38 99.5366 293.039C88.9416 264.829 96.187 243.438 98.1639 237.479L98.1706 237.484C98.5885 236.454 98.9501 235.411 99.2781 234.362C99.2996 234.307 99.3578 234.081 99.3733 234.023C101.346 227.513 101.528 220.582 99.8991 213.975C98.8012 209.013 96.739 204.321 93.8328 200.173C90.9265 196.025 87.234 192.503 82.9702 189.812C78.7064 187.121 73.9563 185.315 68.9961 184.498C64.036 183.681 58.9649 183.871 54.0778 185.055C49.1906 186.239 44.585 188.395 40.5288 191.397C36.4726 194.399 33.0468 198.186 30.4506 202.54C27.8544 206.893 26.1396 211.726 25.406 216.756C24.6725 221.786 24.9347 226.914 26.1776 231.84C27.089 235.698 28.5753 239.392 30.5855 242.797C30.7442 243.061 30.982 243.267 31.2642 243.384C31.5465 243.502 31.8585 243.526 32.155 243.452V243.452Z" fill="#333333" stroke="#333333" stroke-width="4" stroke-miterlimit="10"/>
<path d="M152 145.462C152 87.1743 203.138 55 243.748 55C287.366 55 337 87.1743 337 145.462C337 203.749 295.586 251 244.5 251C193.414 251 152 203.749 152 145.462Z" stroke="#333333" stroke-width="10" stroke-miterlimit="10"/>
<path d="M176.282 398.088C175.413 396.734 174.533 395.38 173.623 394.033C173.501 393.853 173.34 393.703 173.152 393.594C172.964 393.485 172.754 393.42 172.537 393.404C172.321 393.388 172.103 393.421 171.902 393.501C171.7 393.581 171.518 393.706 171.371 393.867C168.948 396.625 166.245 399.121 163.306 401.316C159.905 403.594 156.086 405.168 152.072 405.947C148.058 406.727 143.93 406.695 139.928 405.854C135.927 405.013 132.132 403.38 128.766 401.05C125.4 398.72 122.531 395.74 120.325 392.284C118.119 388.828 116.621 384.965 115.919 380.921C115.216 376.878 115.324 372.734 116.235 368.732C117.145 364.73 118.841 360.951 121.223 357.615C123.605 354.279 126.625 351.453 130.107 349.302C134.597 346.455 139.716 344.765 145.011 344.379C159.3 343.602 173.981 341.326 187.011 332.941C192.835 329.201 198.096 324.644 202.635 319.408C202.877 319.135 203.007 318.78 203 318.415C202.992 318.049 202.846 317.7 202.593 317.438C202.339 317.176 201.995 317.02 201.632 317.002C201.268 316.984 200.911 317.105 200.632 317.34C177.587 336.75 155.048 336.855 148.784 336.924L148.786 336.916C147.678 336.856 146.577 336.853 145.48 336.884C145.421 336.882 145.189 336.9 145.13 336.904C138.347 337.158 131.762 339.264 126.082 342.995C121.775 345.676 118.042 349.191 115.1 353.335C112.158 357.478 110.066 362.168 108.946 367.131C107.825 372.093 107.699 377.23 108.574 382.242C109.449 387.255 111.308 392.042 114.042 396.326C116.777 400.611 120.332 404.306 124.503 407.198C128.673 410.09 133.374 412.121 138.332 413.172C143.291 414.223 148.409 414.274 153.387 413.321C158.365 412.369 163.105 410.431 167.332 407.623C170.661 405.483 173.646 402.846 176.185 399.804C176.381 399.565 176.496 399.27 176.513 398.962C176.531 398.653 176.45 398.347 176.282 398.088Z" fill="#333333" stroke="#333333" stroke-width="4" stroke-miterlimit="10"/>
<path d="M282.668 284.855C283.104 285.55 283.499 286.266 283.852 287L288 286.094C284.661 272.919 265.408 253 244 253V257.382C261.367 257.382 278.178 273.037 282.668 284.855Z" fill="#333333"/>
<path d="M208.332 284.855C207.896 285.55 207.501 286.266 207.148 287L203 286.094C206.339 272.919 225.592 253 247 253V257.382C229.633 257.382 212.822 273.037 208.332 284.855Z" fill="#333333"/>
<path d="M217.05 265.304L206.9 279L204 244L233 254.652L217.05 265.304Z" fill="#333333" stroke="#333333" stroke-width="3" stroke-miterlimit="10"/>
<path d="M273.05 265.696L283.9 279L287 245L256 255.348L273.05 265.696Z" fill="#333333" stroke="#333333" stroke-width="3" stroke-miterlimit="10"/>
<g clip-path="url(#clip1)">
<path d="M222.681 334.501C223.296 336.591 224.15 338.607 225.229 340.499L222.154 344.344C221.15 345.601 221.263 347.393 222.393 348.525L227.689 353.777C228.832 354.909 230.639 355.008 231.907 354.013L235.76 350.989C237.743 352.122 239.852 353.005 242.048 353.627L242.625 358.542C242.814 360.135 244.169 361.33 245.776 361.33H253.269C254.875 361.33 256.231 360.135 256.419 358.542L256.971 353.801C259.331 353.192 261.59 352.283 263.711 351.101L267.439 354.025C268.707 355.021 270.514 354.909 271.656 353.789L276.953 348.538C278.095 347.405 278.196 345.613 277.191 344.356L274.292 340.71C275.497 338.644 276.438 336.442 277.066 334.14L281.534 333.63C283.141 333.443 284.346 332.099 284.346 330.506V323.077C284.346 321.484 283.141 320.14 281.534 319.954L277.129 319.444C276.526 317.166 275.623 314.989 274.468 312.948L277.179 309.551C278.183 308.294 278.07 306.502 276.941 305.369L271.657 300.131C270.514 298.998 268.707 298.899 267.439 299.894L264.113 302.507C261.954 301.25 259.645 300.292 257.223 299.645L256.721 295.377C256.532 293.784 255.177 292.589 253.57 292.589H246.077C244.471 292.589 243.115 293.784 242.927 295.377L242.425 299.645C239.94 300.305 237.567 301.3 235.358 302.607L231.907 299.894C230.639 298.899 228.832 299.011 227.69 300.131L222.393 305.382C221.251 306.514 221.15 308.306 222.154 309.563L225.041 313.184C223.887 315.25 223.008 317.453 222.431 319.742L217.812 320.265C216.205 320.452 215 321.795 215 323.388V330.817C215 332.41 216.205 333.754 217.812 333.941L222.681 334.501ZM249.83 314.404C256.658 314.404 262.218 319.917 262.218 326.686C262.218 333.456 256.658 338.968 249.83 338.968C243.002 338.968 237.442 333.456 237.442 326.686C237.442 319.917 243.002 314.404 249.83 314.404Z" fill="#333333"/>
<path d="M323.907 336.33L319.953 333.02C318.736 332 316.941 332.049 315.786 333.132L313.603 335.16C311.758 334.277 309.8 333.655 307.779 333.294L307.164 330.307C306.85 328.764 305.407 327.694 303.825 327.818L298.667 328.254C297.085 328.391 295.843 329.673 295.792 331.253L295.692 334.289C293.709 334.999 291.839 335.969 290.132 337.189L287.521 335.472C286.19 334.6 284.421 334.849 283.392 336.056L280.053 340.001C279.024 341.208 279.074 342.988 280.166 344.133L282.45 346.547C281.659 348.314 281.095 350.168 280.768 352.072L277.505 352.731C275.949 353.042 274.869 354.473 274.995 356.041L275.434 361.156C275.572 362.724 276.865 363.956 278.459 364.006L281.986 364.117C282.626 365.785 283.467 367.365 284.484 368.846L282.513 371.795C281.635 373.114 281.886 374.869 283.103 375.889L287.057 379.199C288.274 380.22 290.069 380.17 291.224 379.087L293.809 376.686C295.504 377.47 297.286 378.055 299.118 378.403L299.834 381.912C300.148 383.455 301.591 384.525 303.173 384.401L308.331 383.966C309.913 383.829 311.155 382.547 311.205 380.967L311.318 377.532C313.201 376.872 314.983 375.976 316.627 374.869L319.477 376.736C320.807 377.607 322.577 377.358 323.606 376.151L326.945 372.231C327.974 371.024 327.923 369.244 326.832 368.099L324.535 365.685C325.376 363.918 325.991 362.052 326.342 360.135L329.48 359.501C331.036 359.19 332.116 357.759 331.99 356.19L331.551 351.076C331.413 349.508 330.12 348.276 328.526 348.226L325.376 348.127C324.723 346.31 323.844 344.593 322.752 343L324.472 340.436C325.376 339.118 325.125 337.351 323.907 336.33ZM304.465 365.897C298.893 366.37 293.972 362.251 293.508 356.726C293.031 351.201 297.186 346.323 302.758 345.862C308.331 345.389 313.251 349.508 313.715 355.033C314.193 360.559 310.038 365.437 304.465 365.897Z" fill="#333333"/>
<path d="M240.73 379.66C239.149 379.822 237.931 381.141 237.919 382.721L237.881 385.87C237.856 387.45 239.036 388.794 240.617 388.993L242.952 389.292C243.341 390.698 243.893 392.042 244.608 393.311L243.102 395.153C242.098 396.385 242.174 398.152 243.291 399.284L245.512 401.537C246.629 402.669 248.411 402.793 249.679 401.823L251.549 400.392C252.867 401.163 254.26 401.773 255.716 402.196L255.967 404.585C256.13 406.153 257.461 407.36 259.055 407.373L262.23 407.41C263.824 407.435 265.18 406.265 265.381 404.697L265.669 402.433C267.251 402.047 268.757 401.462 270.188 400.69L271.945 402.097C273.188 403.092 274.97 403.017 276.112 401.91L278.384 399.707C279.526 398.6 279.652 396.833 278.673 395.576L277.33 393.846C278.158 392.477 278.798 391.021 279.237 389.491L281.321 389.279C282.902 389.117 284.12 387.798 284.132 386.218L284.17 383.07C284.195 381.489 283.015 380.145 281.434 379.946L279.4 379.685C279.011 378.167 278.434 376.698 277.681 375.329L278.949 373.786C279.953 372.554 279.878 370.787 278.761 369.655L276.539 367.403C275.422 366.27 273.639 366.146 272.372 367.116L270.853 368.274C269.422 367.415 267.891 366.756 266.285 366.308L266.084 364.354C265.92 362.786 264.59 361.579 262.996 361.566L259.821 361.529C258.227 361.504 256.871 362.674 256.67 364.242L256.419 366.183C254.762 366.606 253.168 367.253 251.687 368.099L250.118 366.83C248.876 365.835 247.093 365.909 245.951 367.017L243.667 369.232C242.525 370.339 242.399 372.107 243.378 373.363L244.721 375.081C243.943 376.45 243.328 377.905 242.926 379.436L240.73 379.66ZM261.226 376.101C265.782 376.151 269.435 379.872 269.385 384.389C269.334 388.906 265.581 392.527 261.025 392.477C256.469 392.428 252.817 388.707 252.867 384.19C252.917 379.672 256.67 376.051 261.226 376.101Z" fill="#333333"/>
</g>
</g>
<defs>
<clipPath id="clip0">
<rect width="497" height="463" fill="white"/>
</clipPath>
<clipPath id="clip1">
<rect width="117" height="116" fill="white" transform="translate(215 292)"/>
</clipPath>
</defs>
</svg>
